<svg width="63" height="64" viewBox="0 0 63 64" fill="none" xmlns="http://www.w3.org/2000/svg">
<g id="xbox icon">
<path id="Shape" fill-rule="evenodd" clip-rule="evenodd" d="M14.0329 5.4295C14.0148 5.44368 13.999 5.45867 13.9834 5.47354C13.9716 5.48476 13.9599 5.49591 13.9472 5.50661C14.126 5.31509 14.3831 5.10866 14.552 4.99674C19.4835 1.74102 25.1814 0 31.5037 0C37.417 0 42.9558 1.65895 47.684 4.54407C48.0268 4.75051 48.9622 5.40215 49.4446 5.99409V5.99658C44.8828 0.887922 31.4743 11.8489 31.4743 11.8489C26.8366 8.21763 22.5712 5.74289 19.3954 4.86243C16.7411 4.12374 14.9046 4.74056 14.0329 5.4295ZM54.4172 10.0515L54.4171 10.0515L54.4169 10.0512C54.337 9.9674 54.2567 9.88319 54.1801 9.7945C53.0269 8.50863 51.6091 8.19773 50.3309 8.28229C49.1679 8.65288 43.7932 10.6202 37.1697 16.9725C37.1697 16.9725 44.6257 24.337 49.1924 31.8657C53.7519 39.3907 56.4792 45.3056 54.807 53.5121C54.7599 53.2385 54.0071 49.1003 49.9073 43.247C48.9108 41.8293 45.2697 37.4046 43.23 35.0816C41.2075 32.776 38.1981 29.473 34.2241 25.4587C33.3548 24.5808 32.4366 23.6655 31.4718 22.7179C31.4718 22.7179 30.0198 24.1928 28.1295 26.1328V26.1303C25.7103 28.6125 22.5736 31.8508 20.8327 33.741C17.7328 37.1012 8.85169 47.6543 8.35217 53.5713C8.35217 53.5713 6.37615 48.878 10.7126 38.0538C13.5456 30.9778 22.1059 20.3526 25.6809 16.8904C25.6809 16.8904 22.4145 13.2392 18.3155 10.7172L18.291 10.7098C18.291 10.7098 18.2445 10.6725 18.1711 10.6252C16.1999 9.43137 14.0476 8.51112 11.9761 8.38924C9.86051 8.54096 8.52112 10.1129 8.52112 10.1129C3.2346 15.8383 0 23.5337 0 32C0 49.6714 14.1039 64 31.5037 64C40.7373 64 49.0454 59.9559 54.8094 53.5265C54.8094 53.5264 54.8092 53.5252 54.8089 53.5231C54.8087 53.5222 54.8085 53.5211 54.8083 53.5198C59.8967 47.8371 63 40.2877 63 31.9975C63 23.6058 59.8193 15.9677 54.6111 10.2596C54.5482 10.189 54.4828 10.1204 54.4172 10.0515ZM54.8083 53.5198C54.807 53.5212 54.8058 53.5226 54.8045 53.524C54.8054 53.52 54.8062 53.5161 54.807 53.5121C54.8075 53.5152 54.8079 53.5177 54.8083 53.5198Z" fill="white"/>
</g>
</svg>
