<svg width="209" height="61" viewBox="0 0 209 61" fill="none" xmlns="http://www.w3.org/2000/svg">
<g id="mixer-logo">
<path id="Shape" d="M74 18C71.2561 18 69 20.2153 69 22.9769V58.6951C69 59.4234 69.5793 60 70.311 60H77.689C78.4207 60 79 59.4234 79 58.6951V22.9769C79 20.2153 76.7744 18 74 18Z" fill="#061A54"/>
<path id="Shape_2" d="M47.3904 18.0234C41.2844 18.0234 37.0618 20.5426 33.9328 25.3686C29.7709 15.5346 15.5842 15.747 9.69074 24.7919C8.77938 20.9372 5.34661 18.0841 1.24552 18.0841H0C0 25.7024 0 49.8928 0 58.6949C0 59.4233 0.577191 60 1.30627 60H8.65787C9.38695 60 9.96414 59.4233 9.96414 58.6949V37.0237C9.96414 31.5603 12.5767 26.2791 17.9841 26.2791C23.0269 26.2791 25.4572 29.4964 25.4572 36.1131V58.6645C25.4572 59.393 26.0344 59.9696 26.7634 59.9696H34.115C34.8441 59.9696 35.4213 59.393 35.4213 58.6645V37.0237C35.4213 31.8335 38.3377 26.2791 43.4412 26.2791C49.7296 26.2791 51.0055 30.5284 51.0055 36.9023V58.6949C51.0055 59.4233 51.5827 60 52.3118 60H59.6937C60.4228 60 61 59.4233 61 58.6949V34.7776C60.9696 24.6401 57.385 18.0234 47.3904 18.0234Z" fill="#061A54"/>
<path id="Shape_3" d="M95.9078 19.9937C94.1924 17.6651 90.8217 17.3022 88.6247 19.2982C86.7287 21.0522 86.5782 24.016 88.1131 26.1027L98.0145 39.4395L88.0529 52.8973C86.518 54.984 86.6384 57.9478 88.5645 59.7018C90.7615 61.6978 94.1322 61.3349 95.8476 59.0063L109.752 40.2258C110.083 39.7722 110.083 39.1371 109.752 38.6835L95.9078 19.9937Z" fill="#061A54"/>
<path id="Shape_4" d="M127.081 19.9937C128.798 17.6651 132.173 17.3022 134.373 19.2982C136.272 21.0522 136.422 24.016 134.885 26.1027L124.971 39.4395L134.946 52.8973C136.483 54.984 136.362 57.9478 134.433 59.7018C132.234 61.6978 128.858 61.3349 127.141 59.0063L113.249 40.1956C112.917 39.7419 112.917 39.1068 113.249 38.6532L127.081 19.9937Z" fill="#1FBAED"/>
<path id="Shape_5" fill-rule="evenodd" clip-rule="evenodd" d="M168.577 51.855C169.037 51.7035 169.559 51.855 169.866 52.2491L173.15 56.5538C173.641 57.1904 173.426 58.1604 172.659 58.4939C162.468 63.1017 140 63.617 140 39.8809C140 16.9935 163.973 13.1739 173.212 23.2686C176.987 27.3611 178 32.6661 178 38.153C178 40.6084 176.005 42.5789 173.519 42.5789H150.313C151.204 54.7046 163.328 53.6436 168.577 51.855ZM159.737 25.9969C157.373 25.9969 155.317 26.876 153.567 28.6039C151.94 30.2409 150.835 32.3629 150.344 34.9093H167.932C167.871 32.0598 167.134 29.8771 165.784 28.3614C164.341 26.7851 162.315 25.9969 159.737 25.9969Z" fill="#1FBAED"/>
<path id="Shape_6" d="M208.06 18.5474C206.305 18.0608 203.46 18.1825 202.552 18.365C199.012 19.4294 196.409 21.8624 194.835 25.5424C194.291 21.2846 190.659 18 186.271 18H185C185 25.6336 185 49.903 185 58.6923C185 59.4222 185.575 60 186.301 60H193.625C194.351 60 194.926 59.4222 194.926 58.6923V38.9848C194.926 30.8342 199.496 25.1166 207.243 28.0058C208.091 28.3099 208.998 27.7017 208.998 26.7893V19.8248C209.029 19.2469 208.605 18.6995 208.06 18.5474Z" fill="#1FBAED"/>
<path id="Shape_7" d="M69 5.5C69 8.54857 71.4758 11 74.5157 11C77.5556 11 80 8.51714 80 5.5C80 2.48286 77.5242 0 74.4843 0C71.4444 0 69 2.48286 69 5.5Z" fill="white"/>
</g>
</svg>
